<svg width="30" height="30" viewBox="0 0 30 30" fill="none" xmlns="http://www.w3.org/2000/svg">
<path d="M7.496 21.736C6.42267 21.736 5.886 21.3757 5.886 20.655C5.886 20.333 5.978 20.0723 6.162 19.873C6.37667 19.643 6.622 19.528 6.898 19.528C7.09733 19.528 7.197 19.5817 7.197 19.689C7.197 19.781 7.174 19.827 7.128 19.827C7.11267 19.827 7.059 19.8117 6.967 19.781C6.921 19.7657 6.86733 19.758 6.806 19.758C6.63733 19.758 6.49167 19.8423 6.369 20.011C6.24633 20.149 6.185 20.3177 6.185 20.517C6.185 20.8237 6.35367 21.069 6.691 21.253C6.99767 21.391 7.312 21.46 7.634 21.46C8.81467 21.46 9.89567 20.9923 10.877 20.057C11.2603 19.7043 11.636 19.2673 12.004 18.746C12.3873 18.2247 12.763 17.619 13.131 16.929C13.131 16.9137 13.2613 16.63 13.522 16.078C13.798 15.526 14.1967 14.7133 14.718 13.64C16.006 11.0027 17.4627 9.11667 19.088 7.982C18.1527 7.62933 16.9873 7.453 15.592 7.453C14.7947 7.453 14.0433 7.522 13.338 7.66C12.6327 7.78267 11.9657 7.97433 11.337 8.235C9.84967 8.833 8.74567 9.73 8.025 10.926C7.58033 11.6773 7.358 12.421 7.358 13.157C7.358 13.939 7.60333 14.5907 8.094 15.112C8.58467 15.6487 9.221 15.917 10.003 15.917C10.877 15.917 11.6513 15.6027 12.326 14.974C13.0007 14.33 13.338 13.5787 13.338 12.72C13.338 12.122 13.177 11.6313 12.855 11.248C12.5177 10.8493 12.05 10.65 11.452 10.65C11.0073 10.65 10.6087 10.788 10.256 11.064C9.90333 11.3707 9.727 11.754 9.727 12.214C9.727 12.582 9.92633 12.766 10.325 12.766C10.3557 12.766 10.3787 12.743 10.394 12.697C10.44 12.651 10.4783 12.628 10.509 12.628C10.5397 12.6433 10.555 12.6663 10.555 12.697C10.555 12.8503 10.4707 12.927 10.302 12.927C9.78067 12.927 9.52 12.6817 9.52 12.191C9.52 11.7003 9.74233 11.271 10.187 10.903C10.6163 10.5503 11.0763 10.374 11.567 10.374C12.2263 10.374 12.763 10.5887 13.177 11.018C13.6063 11.4473 13.821 11.9917 13.821 12.651C13.821 13.663 13.4223 14.514 12.625 15.204C11.8737 15.848 10.9843 16.17 9.957 16.17C8.991 16.17 8.20133 15.8863 7.588 15.319C6.92867 14.7057 6.599 13.9467 6.599 13.042C6.599 12.398 6.76 11.7693 7.082 11.156C7.78733 9.76067 9.02933 8.718 10.808 8.028C12.2647 7.46067 13.9207 7.177 15.776 7.177C17.156 7.177 18.398 7.35333 19.502 7.706C20.5447 7.09267 21.4877 6.786 22.331 6.786C22.4537 6.786 22.515 6.80133 22.515 6.832C22.515 6.878 22.492 6.901 22.446 6.901C22.3847 6.901 22.2927 6.90867 22.17 6.924C22.0627 6.924 21.94 6.93167 21.802 6.947C21.0967 7.039 20.4297 7.33033 19.801 7.821C21.4417 8.44967 22.262 9.362 22.262 10.558C22.262 11.6773 21.687 12.605 20.537 13.341C19.617 13.9237 18.5207 14.284 17.248 14.422C17.4167 14.882 17.547 15.4953 17.639 16.262C17.685 16.676 17.7233 17.09 17.754 17.504C17.7847 17.918 17.8307 18.332 17.892 18.746C18.0607 19.9573 18.3597 20.6397 18.789 20.793C18.9883 20.8697 19.1723 20.908 19.341 20.908C20.0157 20.908 20.744 20.4557 21.526 19.551C22.2007 18.7383 22.6377 17.9563 22.837 17.205L22.883 17.182L22.998 17.228V17.274C22.7067 18.148 22.193 19.0143 21.457 19.873C20.583 20.8543 19.7473 21.345 18.95 21.345C18.6127 21.345 18.2983 21.2377 18.007 21.023C17.4703 20.6703 17.11 20.057 16.926 19.183C16.88 18.9223 16.8417 18.5927 16.811 18.194C16.7803 17.7953 16.7573 17.3123 16.742 16.745C16.742 15.687 16.6807 14.9357 16.558 14.491H16.098C15.9907 14.491 15.8833 14.491 15.776 14.491C15.684 14.4757 15.5997 14.4603 15.523 14.445C14.695 16.4383 13.8823 17.9257 13.085 18.907C11.935 20.287 10.5243 21.1687 8.853 21.552C8.33167 21.6747 7.87933 21.736 7.496 21.736ZM17.133 14.146C18.191 13.962 19.111 13.594 19.893 13.042C20.813 12.352 21.273 11.5163 21.273 10.535C21.273 9.477 20.6597 8.672 19.433 8.12C18.8503 8.626 18.2753 9.30067 17.708 10.144C17.156 10.9873 16.6117 11.9993 16.075 13.18C16.5503 13.364 16.903 13.686 17.133 14.146ZM16.121 14.215H16.282L16.489 14.192C16.351 13.8393 16.1747 13.594 15.96 13.456C15.914 13.5327 15.868 13.6323 15.822 13.755C15.776 13.8777 15.7147 14.0233 15.638 14.192C15.7147 14.192 15.7913 14.1997 15.868 14.215C15.96 14.215 16.0443 14.215 16.121 14.215Z" fill="black"/>
<path d="M21.48 24.485C21.1767 24.485 20.9267 24.3967 20.73 24.22C20.5267 24.0367 20.425 23.7933 20.425 23.49C20.425 23.2267 20.5033 23.0033 20.66 22.82C20.8233 22.6267 21.0383 22.53 21.305 22.53C21.3217 22.53 21.3383 22.5317 21.355 22.535C21.375 22.535 21.3917 22.535 21.405 22.535C21.565 22.555 21.6983 22.6333 21.805 22.77C21.915 22.9033 21.97 23.05 21.97 23.21C21.97 23.39 21.8967 23.5483 21.75 23.685C21.6067 23.815 21.4433 23.88 21.26 23.88C21.2233 23.88 21.205 23.8733 21.205 23.86C21.205 23.85 21.235 23.84 21.295 23.83C21.385 23.82 21.465 23.7967 21.535 23.76C21.605 23.7233 21.6667 23.6767 21.72 23.62C21.82 23.5033 21.87 23.355 21.87 23.175C21.87 23.0383 21.83 22.915 21.75 22.805C21.6567 22.685 21.5467 22.6183 21.42 22.605C21.4067 22.605 21.39 22.605 21.37 22.605C21.3533 22.6017 21.335 22.6 21.315 22.6C21.0717 22.6 20.8717 22.6817 20.715 22.845C20.5683 23.0083 20.495 23.2117 20.495 23.455C20.495 23.7383 20.58 23.9683 20.75 24.145C20.9267 24.3217 21.155 24.41 21.435 24.41C21.4517 24.41 21.4667 24.4083 21.48 24.405C21.4967 24.405 21.51 24.405 21.52 24.405C21.8167 24.375 22.0833 24.2367 22.32 23.99C22.4567 23.8467 22.6333 23.595 22.85 23.235C22.9 23.1483 22.9617 23.0433 23.035 22.92C23.1117 22.7933 23.2033 22.6483 23.31 22.485C23.4733 22.2383 23.6417 22.0233 23.815 21.84C23.9883 21.6533 24.165 21.4983 24.345 21.375C23.965 21.1783 23.73 21.0633 23.64 21.03C23.3567 20.9133 23.105 20.855 22.885 20.855C22.8017 20.855 22.72 20.8633 22.64 20.88C22.56 20.8967 22.4833 20.92 22.41 20.95C22.2367 21.02 22.095 21.135 21.985 21.295C21.8717 21.455 21.815 21.6267 21.815 21.81C21.815 22.0033 21.88 22.16 22.01 22.28C22.14 22.4 22.3017 22.46 22.495 22.46C22.685 22.46 22.86 22.3983 23.02 22.275C23.18 22.145 23.26 21.9817 23.26 21.785C23.26 21.6483 23.2167 21.5283 23.13 21.425C23.04 21.3183 22.925 21.265 22.785 21.265C22.675 21.265 22.5767 21.3033 22.49 21.38C22.4 21.46 22.355 21.555 22.355 21.665C22.355 21.7383 22.3783 21.795 22.425 21.835C22.4717 21.8783 22.495 21.9067 22.495 21.92C22.495 21.9233 22.4933 21.9267 22.49 21.93C22.48 21.93 22.465 21.9233 22.445 21.91C22.355 21.8433 22.31 21.7583 22.31 21.655C22.31 21.5283 22.36 21.4233 22.46 21.34C22.5533 21.2567 22.665 21.215 22.795 21.215C22.9417 21.215 23.0717 21.2683 23.185 21.375C23.2917 21.4883 23.345 21.62 23.345 21.77C23.345 21.9833 23.2533 22.165 23.07 22.315C22.8933 22.4617 22.6983 22.535 22.485 22.535C22.2583 22.535 22.075 22.4617 21.935 22.315C21.7917 22.175 21.72 21.99 21.72 21.76C21.72 21.5533 21.775 21.3633 21.885 21.19C22.005 21.0033 22.1567 20.8783 22.34 20.815C22.51 20.7517 22.6867 20.72 22.87 20.72C22.9967 20.72 23.1267 20.7367 23.26 20.77C23.3967 20.8 23.535 20.8517 23.675 20.925C23.7983 20.9883 23.92 21.055 24.04 21.125C24.16 21.195 24.2817 21.2633 24.405 21.33C24.625 21.1867 24.8167 21.115 24.98 21.115C25.0533 21.115 25.125 21.135 25.195 21.175C25.2783 21.225 25.32 21.2833 25.32 21.35C25.32 21.4267 25.2783 21.4867 25.195 21.53C25.125 21.57 25.05 21.59 24.97 21.59C24.9133 21.59 24.8417 21.5767 24.755 21.55C24.7117 21.62 24.6717 21.705 24.635 21.805C24.6017 21.905 24.5767 22.0217 24.56 22.155C24.55 22.2183 24.54 22.305 24.53 22.415C24.5233 22.5217 24.5167 22.6517 24.51 22.805C24.48 23.415 24.3867 23.8133 24.23 24C24.29 23.9933 24.36 23.9617 24.44 23.905C24.7467 23.6883 25.04 23.22 25.32 22.5C25.8233 21.2167 26.38 20.575 26.99 20.575C27.1333 20.575 27.2483 20.6017 27.335 20.655C27.445 20.7183 27.5 20.8167 27.5 20.95C27.5 20.9633 27.4967 20.9817 27.49 21.005C27.4833 21.0283 27.475 21.0533 27.465 21.08C27.445 21.1467 27.4217 21.18 27.395 21.18C27.385 21.18 27.38 21.17 27.38 21.15H27.375C27.3917 21.12 27.4033 21.0917 27.41 21.065C27.42 21.035 27.425 21.0067 27.425 20.98C27.425 20.8967 27.3867 20.8267 27.31 20.77C27.24 20.72 27.16 20.695 27.07 20.695C26.88 20.695 26.6917 20.7683 26.505 20.915C26.3817 21.0083 26.265 21.1217 26.155 21.255C26.045 21.385 25.94 21.5333 25.84 21.7C25.7733 21.8067 25.7017 21.9383 25.625 22.095C25.5483 22.2483 25.465 22.4267 25.375 22.63C25.2917 22.8133 25.215 22.975 25.145 23.115C25.075 23.255 25.01 23.37 24.95 23.46C24.7467 23.7633 24.52 23.965 24.27 24.065C24.2167 24.085 24.1667 24.1 24.12 24.11C24.0733 24.1233 24.0317 24.13 23.995 24.13C23.965 24.13 23.9433 24.1267 23.93 24.12L23.92 24.115C23.92 24.1083 23.9467 24.095 24 24.075C24.0867 24.045 24.1583 23.99 24.215 23.91C24.2417 23.8733 24.255 23.7933 24.255 23.67C24.255 23.63 24.2533 23.58 24.25 23.52C24.2467 23.4567 24.2417 23.3833 24.235 23.3C24.2283 23.2133 24.2233 23.14 24.22 23.08C24.2167 23.02 24.215 22.9683 24.215 22.925C24.215 22.6783 24.2483 22.43 24.315 22.18C24.395 21.88 24.51 21.66 24.66 21.52C24.6233 21.5033 24.5817 21.485 24.535 21.465C24.4883 21.4417 24.4383 21.4183 24.385 21.395C24.205 21.525 24.0217 21.6983 23.835 21.915C23.745 22.0217 23.6633 22.1283 23.59 22.235C23.5167 22.3383 23.455 22.4417 23.405 22.545C23.3783 22.5983 23.3467 22.6667 23.31 22.75C23.2733 22.83 23.2267 22.9233 23.17 23.03C22.7167 23.92 22.1867 24.4033 21.58 24.48C21.5667 24.4833 21.5517 24.485 21.535 24.485C21.5183 24.485 21.5 24.485 21.48 24.485ZM24.98 21.555C25.1333 21.555 25.21 21.5033 25.21 21.4C25.21 21.34 25.1733 21.2867 25.1 21.24C25.0333 21.2033 24.9667 21.185 24.9 21.185C24.77 21.185 24.6183 21.2417 24.445 21.355C24.4917 21.3783 24.5367 21.4017 24.58 21.425C24.6233 21.445 24.665 21.4633 24.705 21.48C24.775 21.42 24.83 21.39 24.87 21.39C24.89 21.39 24.9 21.3967 24.9 21.41C24.9 21.42 24.8933 21.425 24.88 21.425C24.8467 21.4483 24.815 21.4767 24.785 21.51C24.865 21.54 24.93 21.555 24.98 21.555Z" fill="black"/>
</svg>
